# xmcd
#
# Track frame offsets: 
#        183
#        15895
#        31080
#        45358
#        62618
#        82960
#        96775
#        116470
#        136045
#        150895
#
# Disc length: 2171 seconds
#
# Revision: 0
# Processed by: cddbd v1.4PL0 Copyright (c) Steve Scherf et al.
# Submitted via: ExactAudioCopy v0.95a3
#
DISCID=5a08790a
DTITLE=Rich Grissom - Have You Seen Me Lately
DYEAR=1990
DGENRE=Country
TTITLE0=It Must Be Love
TTITLE1=Hillbilly Boy With The Rock n' Roll Blues
TTITLE2=Tell Me I'm Wrong
TTITLE3=The Heart is A Gambler
TTITLE4=Blue Moon in Your Eyes
TTITLE5=Have You Seen Me Lately
TTITLE6=(I Think) I've Finally Broken Mine
TTITLE7=Emotional Blackmail
TTITLE8=I Can't See Tomorrow For Today
TTITLE9=Remains
EXTD=
EXTT0=
EXTT1=
EXTT2=
EXTT3=
EXTT4=
EXTT5=
EXTT6=
EXTT7=
EXTT8=
EXTT9=
PLAYORDER=
